<svg width="350" height="350" viewBox="0 0 350 350" fill="none" xmlns="http://www.w3.org/2000/svg">
<rect width="350" height="350" fill="#F55E61"/>
<rect x="16" y="17" width="319" height="319" stroke="white" stroke-width="2"/>
<path d="M73.8409 190H63.5284V160.909H73.9261C76.8523 160.909 79.3712 161.491 81.483 162.656C83.5947 163.812 85.2188 165.473 86.3551 167.642C87.5009 169.811 88.0739 172.405 88.0739 175.426C88.0739 178.456 87.5009 181.061 86.3551 183.239C85.2188 185.417 83.5852 187.088 81.4545 188.253C79.3333 189.418 76.7955 190 73.8409 190ZM69.679 184.73H73.5852C75.4034 184.73 76.9328 184.408 78.1733 183.764C79.4233 183.111 80.3608 182.102 80.9858 180.739C81.6203 179.366 81.9375 177.595 81.9375 175.426C81.9375 173.277 81.6203 171.52 80.9858 170.156C80.3608 168.793 79.428 167.789 78.1875 167.145C76.947 166.501 75.4176 166.179 73.5994 166.179H69.679V184.73ZM102.374 190.426C100.168 190.426 98.2597 189.957 96.6499 189.02C95.0495 188.073 93.8137 186.757 92.9425 185.071C92.0713 183.376 91.6357 181.411 91.6357 179.176C91.6357 176.922 92.0713 174.953 92.9425 173.267C93.8137 171.572 95.0495 170.256 96.6499 169.318C98.2597 168.371 100.168 167.898 102.374 167.898C104.581 167.898 106.484 168.371 108.085 169.318C109.694 170.256 110.935 171.572 111.806 173.267C112.677 174.953 113.113 176.922 113.113 179.176C113.113 181.411 112.677 183.376 111.806 185.071C110.935 186.757 109.694 188.073 108.085 189.02C106.484 189.957 104.581 190.426 102.374 190.426ZM102.403 185.739C103.406 185.739 104.245 185.455 104.917 184.886C105.589 184.309 106.096 183.523 106.437 182.528C106.787 181.534 106.962 180.402 106.962 179.134C106.962 177.865 106.787 176.733 106.437 175.739C106.096 174.744 105.589 173.958 104.917 173.381C104.245 172.803 103.406 172.514 102.403 172.514C101.389 172.514 100.537 172.803 99.8459 173.381C99.1641 173.958 98.648 174.744 98.2976 175.739C97.9567 176.733 97.7862 177.865 97.7862 179.134C97.7862 180.402 97.9567 181.534 98.2976 182.528C98.648 183.523 99.1641 184.309 99.8459 184.886C100.537 185.455 101.389 185.739 102.403 185.739ZM126.906 190.426C124.671 190.426 122.748 189.953 121.138 189.006C119.538 188.049 118.307 186.723 117.445 185.028C116.593 183.333 116.167 181.383 116.167 179.176C116.167 176.941 116.598 174.981 117.46 173.295C118.331 171.6 119.567 170.279 121.167 169.332C122.767 168.376 124.671 167.898 126.877 167.898C128.781 167.898 130.447 168.243 131.877 168.935C133.307 169.626 134.439 170.597 135.272 171.847C136.105 173.097 136.565 174.564 136.65 176.25H130.94C130.779 175.161 130.353 174.285 129.661 173.622C128.979 172.95 128.085 172.614 126.977 172.614C126.039 172.614 125.22 172.869 124.519 173.381C123.828 173.883 123.288 174.616 122.9 175.582C122.512 176.548 122.317 177.718 122.317 179.091C122.317 180.483 122.507 181.667 122.886 182.642C123.274 183.617 123.818 184.361 124.519 184.872C125.22 185.384 126.039 185.639 126.977 185.639C127.668 185.639 128.288 185.497 128.837 185.213C129.396 184.929 129.855 184.517 130.215 183.977C130.585 183.428 130.826 182.77 130.94 182.003H136.65C136.555 183.67 136.101 185.137 135.286 186.406C134.481 187.666 133.369 188.651 131.948 189.361C130.528 190.071 128.847 190.426 126.906 190.426ZM146.575 177.386V190H140.524V160.909H146.405V172.031H146.661C147.153 170.743 147.948 169.735 149.047 169.006C150.145 168.267 151.523 167.898 153.18 167.898C154.696 167.898 156.017 168.229 157.143 168.892C158.28 169.545 159.161 170.488 159.786 171.719C160.42 172.94 160.732 174.403 160.723 176.108V190H154.672V177.188C154.681 175.843 154.34 174.796 153.649 174.048C152.967 173.3 152.011 172.926 150.78 172.926C149.956 172.926 149.227 173.101 148.592 173.452C147.967 173.802 147.475 174.313 147.115 174.986C146.765 175.649 146.585 176.449 146.575 177.386ZM175.428 190.426C173.184 190.426 171.252 189.972 169.633 189.062C168.023 188.144 166.782 186.847 165.911 185.17C165.04 183.485 164.604 181.491 164.604 179.19C164.604 176.946 165.04 174.976 165.911 173.281C166.782 171.586 168.009 170.265 169.59 169.318C171.181 168.371 173.047 167.898 175.187 167.898C176.626 167.898 177.966 168.13 179.207 168.594C180.457 169.048 181.546 169.735 182.474 170.653C183.411 171.572 184.14 172.727 184.661 174.119C185.182 175.502 185.442 177.121 185.442 178.977V180.639H167.019V176.889H179.746C179.746 176.018 179.557 175.246 179.178 174.574C178.799 173.902 178.274 173.376 177.602 172.997C176.939 172.609 176.167 172.415 175.286 172.415C174.368 172.415 173.553 172.628 172.843 173.054C172.142 173.471 171.593 174.034 171.195 174.744C170.798 175.445 170.594 176.226 170.585 177.088V180.653C170.585 181.733 170.783 182.666 171.181 183.452C171.588 184.238 172.161 184.844 172.9 185.27C173.638 185.696 174.514 185.909 175.528 185.909C176.2 185.909 176.816 185.814 177.374 185.625C177.933 185.436 178.411 185.152 178.809 184.773C179.207 184.394 179.51 183.93 179.718 183.381L185.315 183.75C185.031 185.095 184.448 186.269 183.567 187.273C182.696 188.267 181.569 189.044 180.187 189.602C178.814 190.152 177.228 190.426 175.428 190.426ZM189.505 190V160.909H208.766V165.98H195.656V172.912H207.488V177.983H195.656V190H189.505ZM221.131 190.426C218.887 190.426 216.955 189.972 215.336 189.062C213.726 188.144 212.486 186.847 211.614 185.17C210.743 183.485 210.308 181.491 210.308 179.19C210.308 176.946 210.743 174.976 211.614 173.281C212.486 171.586 213.712 170.265 215.293 169.318C216.884 168.371 218.75 167.898 220.89 167.898C222.329 167.898 223.669 168.13 224.91 168.594C226.16 169.048 227.249 169.735 228.177 170.653C229.114 171.572 229.844 172.727 230.364 174.119C230.885 175.502 231.146 177.121 231.146 178.977V180.639H212.722V176.889H225.45C225.45 176.018 225.26 175.246 224.881 174.574C224.503 173.902 223.977 173.376 223.305 172.997C222.642 172.609 221.87 172.415 220.989 172.415C220.071 172.415 219.256 172.628 218.546 173.054C217.845 173.471 217.296 174.034 216.898 174.744C216.501 175.445 216.297 176.226 216.288 177.088V180.653C216.288 181.733 216.487 182.666 216.884 183.452C217.291 184.238 217.864 184.844 218.603 185.27C219.342 185.696 220.218 185.909 221.231 185.909C221.903 185.909 222.519 185.814 223.077 185.625C223.636 185.436 224.114 185.152 224.512 184.773C224.91 184.394 225.213 183.93 225.421 183.381L231.018 183.75C230.734 185.095 230.151 186.269 229.271 187.273C228.399 188.267 227.272 189.044 225.89 189.602C224.517 190.152 222.931 190.426 221.131 190.426ZM241.146 160.909V190H235.094V160.909H241.146ZM252.044 160.909V190H245.993V160.909H252.044ZM256.891 190V168.182H262.942V190H256.891ZM259.931 165.369C259.031 165.369 258.26 165.071 257.616 164.474C256.981 163.868 256.664 163.144 256.664 162.301C256.664 161.468 256.981 160.753 257.616 160.156C258.26 159.55 259.031 159.247 259.931 159.247C260.831 159.247 261.598 159.55 262.232 160.156C262.876 160.753 263.198 161.468 263.198 162.301C263.198 163.144 262.876 163.868 262.232 164.474C261.598 165.071 260.831 165.369 259.931 165.369ZM267.676 190V186.392L278.358 173.168V173.011H268.045V168.182H285.645V172.116L275.616 185.014V185.17H286.014V190H267.676Z" fill="white"/>
</svg>
